<?xml version="1.0" encoding="UTF-8" standalone="no"?>
<!DOCTYPE svg PUBLIC "-//W3C//DTD SVG 1.1//EN"
 "http://www.w3.org/Graphics/SVG/1.1/DTD/svg11.dtd">
<!-- Generated by graphviz version 12.1.1 (20240910.0053)
 -->
<!-- Title: INFRA Pages: 1 -->
<svg width="780pt" height="80pt"
 viewBox="0.00 0.00 780.39 80.00" xmlns="http://www.w3.org/2000/svg" xmlns:xlink="http://www.w3.org/1999/xlink">
<g id="graph0" class="graph" transform="scale(1 1) rotate(0) translate(4 76)">
<title>INFRA</title>
<polygon fill="white" stroke="none" points="-4,4 -4,-76 776.39,-76 776.39,4 -4,4"/>
<!-- PinataStorage -->
<g id="node1" class="node">
<title>PinataStorage</title>
<path fill="#fff5cd" stroke="black" stroke-width="2" d="M170.07,-65.45C170.07,-69.07 131.95,-72 85.03,-72 38.11,-72 0,-69.07 0,-65.45 0,-65.45 0,-6.55 0,-6.55 0,-2.93 38.11,0 85.03,0 131.95,0 170.07,-2.93 170.07,-6.55 170.07,-6.55 170.07,-65.45 170.07,-65.45"/>
<path fill="none" stroke="black" stroke-width="2" d="M170.07,-65.45C170.07,-61.84 131.95,-58.91 85.03,-58.91 38.11,-58.91 0,-61.84 0,-65.45"/>
<text text-anchor="middle" x="85.03" y="-40.2" font-family="Arial" font-size="14.00">PinataStorage</text>
<text text-anchor="middle" x="85.03" y="-23.4" font-family="Arial" font-size="14.00">(Custom::PinataStorage)</text>
</g>
<!-- TokenDeploymentManager -->
<g id="node2" class="node">
<title>TokenDeploymentManager</title>
<path fill="#e6e6e6" stroke="black" stroke-width="2" d="M426.14,-72C426.14,-72 199.93,-72 199.93,-72 193.93,-72 187.93,-66 187.93,-60 187.93,-60 187.93,-12 187.93,-12 187.93,-6 193.93,0 199.93,0 199.93,0 426.14,0 426.14,0 432.14,0 438.14,-6 438.14,-12 438.14,-12 438.14,-60 438.14,-60 438.14,-66 432.14,-72 426.14,-72"/>
<text text-anchor="middle" x="313.03" y="-40.2" font-family="Arial" font-size="14.00">TokenDeploymentManager</text>
<text text-anchor="middle" x="313.03" y="-23.4" font-family="Arial" font-size="14.00">(Custom::TokenDeploymentManager)</text>
</g>
<!-- Shiami -->
<g id="node3" class="node">
<title>Shiami</title>
<path fill="#b7e0ff" stroke="black" stroke-width="2" d="M568.1,-72C568.1,-72 467.97,-72 467.97,-72 461.97,-72 455.97,-66 455.97,-60 455.97,-60 455.97,-12 455.97,-12 455.97,-6 461.97,0 467.97,0 467.97,0 568.1,0 568.1,0 574.1,0 580.1,-6 580.1,-12 580.1,-12 580.1,-60 580.1,-60 580.1,-66 574.1,-72 568.1,-72"/>
<text text-anchor="middle" x="518.03" y="-40.2" font-family="Arial" font-size="14.00">Shiami</text>
<text text-anchor="middle" x="518.03" y="-23.4" font-family="Arial" font-size="14.00">(Custom::Shiami)</text>
</g>
<!-- PostgresDatabase -->
<g id="node4" class="node">
<title>PostgresDatabase</title>
<path fill="#ffcfb3" stroke="black" stroke-width="2" d="M772.39,-65.45C772.39,-69.07 733.23,-72 685.03,-72 636.83,-72 597.68,-69.07 597.68,-65.45 597.68,-65.45 597.68,-6.55 597.68,-6.55 597.68,-2.93 636.83,0 685.03,0 733.23,0 772.39,-2.93 772.39,-6.55 772.39,-6.55 772.39,-65.45 772.39,-65.45"/>
<path fill="none" stroke="black" stroke-width="2" d="M772.39,-65.45C772.39,-61.84 733.23,-58.91 685.03,-58.91 636.83,-58.91 597.68,-61.84 597.68,-65.45"/>
<text text-anchor="middle" x="685.03" y="-40.2" font-family="Arial" font-size="14.00">PostgresDatabase</text>
<text text-anchor="middle" x="685.03" y="-23.4" font-family="Arial" font-size="14.00">(AWS::RDS::DBInstance)</text>
</g>
</g>
</svg>
